HIERARCHY
ROOT Hips
{
  OFFSET 0.0 -5.0 0.0
  CHANNELS 6 Xposition Yposition Zposition Zrotation Xrotation Yrotation
  JOINT Spine
  {
    OFFSET 0 12.0259 -0.162855
    CHANNELS 3 Zrotation Xrotation Yrotation
    JOINT Spine1
    {
      OFFSET 0 15.3169 -0.0121922
      CHANNELS 3 Zrotation Xrotation Yrotation
      JOINT Spine2
      {
        OFFSET 0 15.3176 -0.0121908
        CHANNELS 3 Zrotation Xrotation Yrotation
        JOINT Neck
        {
          OFFSET 0 19.9142 1.56338
          CHANNELS 3 Zrotation Xrotation Yrotation
          JOINT Head
          {
            OFFSET 0 6.92651 0
            CHANNELS 3 Zrotation Xrotation Yrotation
            End Site
            {
              OFFSET 0 20.7666 0
            }
          }
          JOINT LeftShoulder
          {
            OFFSET 7.28219 -6.20654 0.708824
            CHANNELS 3 Zrotation Xrotation Yrotation
            JOINT LeftArm
            {
              OFFSET 14.108 0 -1.52588e-005
              CHANNELS 3 Zrotation Xrotation Yrotation
              JOINT LeftForeArm
              {
                OFFSET 28.5802 0 0
                CHANNELS 3 Zrotation Xrotation Yrotation
                JOINT LeftHand
                {
                  OFFSET 27.092 0 0
                  CHANNELS 3 Zrotation Xrotation Yrotation
                  End Site
                  {
                    OFFSET 9.55928 0.186424 -0.145352
                  }
                }
              }
            }
          }
          JOINT RightShoulder
          {
            OFFSET -7.28218 -6.20654 0.708866
            CHANNELS 3 Zrotation Xrotation Yrotation
            JOINT RightArm
            {
              OFFSET -14.108 0 0
              CHANNELS 3 Zrotation Xrotation Yrotation
              JOINT RightForeArm
              {
                OFFSET -28.5802 0 0
                CHANNELS 3 Zrotation Xrotation Yrotation
                JOINT RightHand
                {
                  OFFSET -27.092 0 0
                  CHANNELS 3 Zrotation Xrotation Yrotation
                  End Site
                  {
                    OFFSET -9.55929 0.186417 -0.145354
                  }
                }
              }
            }
          }
        }
      }
    }
  }
  JOINT LeftUpLeg
  {
    OFFSET 8.837 0.005 -0.535
    CHANNELS 3 Zrotation Xrotation Yrotation
    JOINT LeftLeg
    {
      OFFSET 0 -39.9035 0
      CHANNELS 3 Zrotation Xrotation Yrotation
      JOINT LeftFoot
      {
        OFFSET 0 -39.6689 0
        CHANNELS 3 Zrotation Xrotation Yrotation
        JOINT LeftToe
        {
          OFFSET 0 -10.1624 13.6296
          CHANNELS 3 Zrotation Xrotation Yrotation
          End Site
          {
            OFFSET 0 0 8.38147
          }
        }
      }
    }
  }
  JOINT RightUpLeg
  {
    OFFSET -8.837 0.005 -0.535
    CHANNELS 3 Zrotation Xrotation Yrotation
    JOINT RightLeg
    {
      OFFSET 0 -39.9035 0
      CHANNELS 3 Zrotation Xrotation Yrotation
      JOINT RightFoot
      {
        OFFSET 0 -39.6689 0
        CHANNELS 3 Zrotation Xrotation Yrotation
        JOINT RightToe
        {
          OFFSET 0 -10.1624 13.6296
          CHANNELS 3 Zrotation Xrotation Yrotation
          End Site
          {
            OFFSET 0 0 8.38147
          }
        }
      }
    }
  }
}
MOTION
Frames:	11
Frame Time:	0.00833333
12.1274 70.1283 41.1177 -18.4278 -7.42752 29.2008 1.60264 8.45387 4.00833 2.64037 16.9976 7.90589 2.64037 16.9976 7.9059 5.39345 -13.5958 7.62778 -10.3188 24.4773 17.6603 -4.7365 13.3687 -5.66827 -75.4623 -12.8094 4.38286 32.2409 -19.6557 -63.6395 0.410029 -20.5238 -0.384117 -4.39493 14.5336 -6.43522 71.6006 13.269 -13.096 -23.4722 -7.44414 39.9503 -0.957878 0.398911 0.380548 31.1637 -67.9248 11.4204 -3.22625 55.0721 3.83789 -9.747 19.6411 16.4696 -1.98785e-016 -1.78906e-015 -3.18055e-015 1.04627 5.97576 -18.2575 -5.34497 59.5282 5.93587 1.99147 11.9766 -1.29116 3.18055e-015 -9.54166e-015 -7.95139e-016 
12.835 70.1025 42.7081 -18.34 -7.65478 30.7473 1.54526 8.46739 3.94827 2.53217 17.0197 7.79255 2.53216 17.0197 7.79258 5.21418 -13.6527 7.53745 -9.5246 24.1214 17.2711 -4.54683 13.4035 -5.63214 -74.3343 -13.1482 3.10884 32.2118 -19.5223 -63.4755 0.386877 -21.1997 -0.379677 -4.20604 14.5647 -6.40078 72.1179 12.9382 -13.7527 -23.7586 -7.67657 40.5585 -0.949196 -0.981882 0.358217 31.1229 -68.6947 12.5633 -3.52477 57.5247 4.06161 -8.50772 19.1854 14.2161 -1.19271e-015 3.97569e-016 3.18055e-015 1.05202 5.86103 -17.8568 -5.58932 60.7133 6.21221 1.25755 15.3812 1.57692 4.77083e-015 0 -5.56597e-015 
13.5416 70.0819 44.2944 -18.13 -7.93656 32.4288 1.51321 8.51982 3.8415 2.48043 17.1205 7.58036 2.48043 17.1205 7.58035 4.93505 -13.5052 7.41608 -8.82351 23.3448 16.7942 -4.28367 13.2247 -5.61771 -73.2434 -13.3287 1.75729 32.1484 -19.3429 -63.2252 0.366559 -21.9841 -0.371815 -3.95285 14.3796 -6.3828 72.4887 12.8626 -14.3635 -24.0262 -7.90462 41.1295 -0.938006 -2.44413 0.332141 30.4933 -69.3759 13.074 -3.81493 59.9052 4.26241 -7.13035 18.4776 11.6842 3.97569e-016 -4.37326e-015 -3.18055e-015 1.07918 5.6322 -17.4211 -5.86307 62.1236 6.54536 -0.0666421 17.8384 4.76199 -6.36111e-015 -3.18055e-015 -3.18055e-015 
14.2273 70.0767 45.8494 -17.9038 -8.22791 34.1651 1.49328 8.58887 3.70375 2.45723 17.2549 7.30348 2.45724 17.2549 7.30347 4.65559 -13.2954 7.2998 -8.21907 22.415 16.3303 -4.02351 12.9851 -5.61531 -72.1495 -13.4079 0.408309 32.0813 -19.1658 -62.9799 0.348209 -22.7585 -0.362267 -3.70813 14.1332 -6.37475 72.8057 12.922 -14.8326 -24.253 -8.1046 41.6244 -0.927495 -3.76237 0.309443 29.5539 -69.9926 13.1499 -4.11484 62.1098 4.4715 -5.80405 17.625 9.19937 -3.97569e-016 3.97569e-016 6.36111e-015 1.12026 5.23207 -17.0818 -6.2216 63.7619 6.96221 -1.48157 19.4108 7.54194 1.10348e-032 -7.95139e-016 7.95139e-016 
14.871 70.0963 47.3464 -17.7744 -8.48923 35.8748 1.47238 8.65294 3.55293 2.43485 17.3792 6.99989 2.43485 17.3792 6.99988 4.47453 -13.1669 7.2242 -7.70211 21.6024 15.971 -3.84267 12.8376 -5.61871 -71.0172 -13.4447 -0.859138 32.0428 -19.0429 -62.8289 0.330888 -23.4043 -0.352813 -3.54439 13.9812 -6.37331 73.1556 12.9981 -15.0631 -24.4183 -8.25434 42.0043 -0.919878 -4.71124 0.297178 28.6341 -70.5673 13.0347 -4.44091 64.0363 4.71295 -4.69044 16.7551 7.07371 7.95139e-016 -1.98785e-015 6.36111e-015 1.16389 4.60905 -16.968 -6.72551 65.6235 7.49717 -2.38068 20.2064 9.15858 -3.18055e-015 -2.38542e-015 1.98785e-016 
15.4668 70.1379 48.7677 -17.7751 -8.68827 37.5642 1.45001 8.70816 3.38171 2.41352 17.4854 6.65484 2.4135 17.4854 6.65486 4.40493 -13.1732 7.21959 -7.29286 21.0047 15.7881 -3.73978 12.8373 -5.65247 -69.7768 -13.3579 -2.02798 32.0096 -18.93 -62.7131 0.314808 -24.0465 -0.343078 -3.46388 13.9799 -6.4012 73.5352 13.0925 -14.979 -24.4963 -8.33197 42.2092 -0.915431 -5.1361 0.299312 27.687 -71.0992 12.6507 -4.73775 65.6049 4.93792 -3.82243 15.8879 5.38778 -1.59028e-015 -1.59028e-015 -0 1.21036 3.63615 -17.1219 -7.48532 67.8862 8.23633 -2.42907 19.9683 9.21148 -6.36111e-015 -3.97569e-016 -9.93923e-016 
16.0274 70.1982 50.1302 -17.847 -8.852 39.2665 1.43182 8.76533 3.18529 2.40498 17.5953 6.25776 2.40498 17.5953 6.25776 4.39857 -13.2331 7.26005 -6.98208 20.4713 15.7128 -3.68144 12.8976 -5.71214 -68.4554 -13.1501 -3.13623 31.9755 -18.8199 -62.612 0.300374 -24.6961 -0.332395 -3.43368 14.0413 -6.45313 73.9062 13.258 -14.6488 -24.5077 -8.35807 42.2757 -0.912165 -5.18872 0.311308 26.523 -71.569 11.8578 -4.95439 66.8868 5.09514 -3.11421 14.9731 3.97189 2.78299e-015 0 -6.36111e-015 1.25443 2.42727 -17.4734 -8.49207 70.4417 9.20756 -1.89365 18.7571 8.14021 -3.18055e-015 0 -0 
16.5596 70.2851 51.4595 -17.9662 -9.03305 40.9409 1.4143 8.82583 2.9869 2.39846 17.712 5.85635 2.39845 17.712 5.85639 4.46022 -13.2864 7.29614 -6.71207 19.9007 15.6219 -3.6945 12.9584 -5.74936 -67.1788 -13.0067 -4.19122 32.002 -18.823 -62.6708 0.286402 -25.0635 -0.32205 -3.47215 14.1031 -6.48545 74.299 13.4531 -14.1909 -24.5021 -8.37341 42.3092 -0.909201 -5.10311 0.32752 25.3058 -71.9747 10.8508 -5.12993 68.0055 5.21843 -2.52499 14.0437 2.75208 1.59028e-015 7.95139e-016 6.36111e-015 1.26912 1.04826 -17.9827 -9.78694 73.0901 10.4536 -1.09451 17.175 6.45275 -6.36111e-015 -3.97569e-016 -0 
17.0701 70.4064 52.7812 -18.1038 -9.28137 42.5479 1.39381 8.89135 2.81021 2.38243 17.839 5.49955 2.38241 17.8391 5.49957 4.59491 -13.2743 7.27842 -6.43005 19.1903 15.3947 -3.80631 12.9607 -5.71557 -66.0871 -13.1122 -5.20291 32.1485 -19.0459 -63.0365 0.2715 -24.8592 -0.313441 -3.5981 14.1041 -6.45435 74.7462 13.6366 -13.7245 -24.5282 -8.41805 42.415 -0.904819 -5.11331 0.342451 24.1999 -72.3144 9.82617 -5.32123 69.0771 5.36435 -2.01345 13.1309 1.65458 -3.18055e-015 3.57812e-015 3.18055e-015 1.22874 -0.358894 -18.6085 -11.3605 75.5615 11.9832 -0.294541 15.8315 4.62939 -3.18055e-015 1.59028e-015 3.57812e-015 
17.5521 70.5698 54.1092 -18.2616 -9.69601 44.1285 1.37681 8.96676 2.65594 2.37 17.9863 5.18769 2.36997 17.9863 5.18772 4.86937 -13.13 7.18658 -6.12901 18.2502 14.9714 -4.09693 12.844 -5.57785 -65.1776 -13.5057 -6.09281 32.4218 -19.492 -63.8248 0.255334 -23.8412 -0.306622 -3.88956 13.9834 -6.32965 75.2659 13.8187 -13.2374 -24.5593 -8.46341 42.5475 -0.897506 -5.25057 0.355293 23.137 -72.5891 8.62687 -5.52518 70.134 5.53058 -1.57999 12.2726 0.682352 8.82781e-032 -1.59028e-015 3.18055e-015 1.18081 -1.70887 -19.4698 -13.4275 77.8557 14.0042 0.547653 14.8579 2.58254 6.36111e-015 0 1.59028e-015 
18.0075 70.7683 55.4241 -18.4373 -10.2073 45.6925 1.36234 9.05085 2.51721 2.36015 18.1514 4.90687 2.36014 18.1514 4.90687 5.26072 -12.9034 7.04982 -5.84597 17.1544 14.4289 -4.52778 12.6545 -5.37122 -64.4042 -14.0923 -6.88656 32.7725 -20.0729 -64.9456 0.238084 -22.2189 -0.301866 -4.31232 13.7884 -6.14332 75.8361 14.0138 -12.6805 -24.5827 -8.50112 42.675 -0.888486 -5.40049 0.368818 22.0601 -72.7897 7.21056 -5.69895 71.1088 5.67736 -1.23178 11.4477 -0.137818 7.95139e-016 -3.18055e-015 -0 1.09793 -3.094 -20.5502 -16.3866 80.0954 16.9039 1.48419 13.9264 0.134237 -3.18055e-015 -1.59028e-015 2.38542e-015 
